<?xml version="1.0" encoding="UTF-8"?>
<svg id="Layer_1" xmlns="http://www.w3.org/2000/svg" version="1.1" viewBox="0 0 635.66 495.77">
  <!-- Generator: Adobe Illustrator 29.5.1, SVG Export Plug-In . SVG Version: 2.1.0 Build 141)  -->
  <defs>
    <style>
      .st0 {
        fill: #928f88;
      }

      .st1 {
        fill: #7f12a1;
      }

      .st2 {
        fill: #fff;
      }

      .st3 {
        fill: #20201f;
      }

      .st4 {
        fill: #55c0ee;
      }
    </style>
  </defs>
  <circle class="st2" cx="431.56" cy="229.85" r="51.62"/>
  <path class="st2" d="M256.51,229.84c0-28.59-23.18-51.77-51.77-51.77s-51.77,23.18-51.77,51.77,23.18,51.77,51.77,51.77,51.77-23.18,51.77-51.77h0Z"/>
  <g id="mMTZcR">
    <g>
      <path class="st3" d="M572.31,166.63c26.34-.28,48.34,13.05,57.62,37.89,8.18,21.93,7.46,57.54-1.26,79.22-10.18,25.3-28.81,35.16-54.99,39.01-32.35,97.76-126.42,164.11-228.01,171.99-119.58,9.28-226.66-44.24-276.34-154.63-1.48-3.3-5.73-16.63-7.08-17.92-2.61-2.5-7.35-1.02-11.12-1.88C5.4,309.89-3.98,264.48,1.34,223.4c4.37-33.75,27.96-57.11,62.68-56.82,20.85-55.97,61-104.98,113.5-134C244.42-4.38,338.87-8.43,411.4,13.04c74.92,22.18,134.11,80.81,160.91,153.59h0ZM421.05,167.62l-.84-131.39c-64.23-24.23-140.41-23.76-204.57.49l-.52,130.42c50.6,9.97,69.74,75.9,30.07,110.13-9.22,7.95-18.87,10.66-29.88,15.12l.84,164.9c64.64,26.36,140.07,26,204.89.33v-165.22c-13.04-4.79-26.31-10-35.82-21.17-30.9-36.27-10.91-94.43,35.83-103.6h0ZM517.83,107.09c-18.57-23.3-46.39-46.91-72.99-60.49-2.64-1.35-10.04-5.32-12.34-5.68-1.89-.3-1.22.3-1.82,1.81l.63,123.91c42.83,1.19,70.97,40.7,59.35,82.08-5.49,19.55-24.82,37.68-44.47,42.53-3.38.83-15.35,1.19-15.91,3.13l1.57,157.28c5.79,1.7,38.94-20.78,45.25-25.5,101.89-76.18,120.29-219.22,40.73-319.07ZM206.19,166.76V43.26c0-4.23-12.89,2.98-14.31,3.69C49.7,117.64,27.51,314.08,148.17,417.27c16.74,14.32,37.34,28,58.01,35.48v-160c-33.04,1.24-61.28-25.71-63.05-58.45-2.03-37.53,25.17-67.85,63.05-67.55h.01ZM256.51,229.84c0-28.59-23.18-51.77-51.77-51.77s-51.77,23.18-51.77,51.77,23.18,51.77,51.77,51.77,51.77-23.18,51.77-51.77h0ZM483.18,229.85c0-28.51-23.11-51.62-51.62-51.62s-51.62,23.11-51.62,51.62,23.11,51.62,51.62,51.62,51.62-23.11,51.62-51.62ZM57.18,185.76c-26.5,2.29-36.37,23.5-38.03,47.46-1.89,27.37,2.97,66.05,37.04,68.54-7.97-38.79-7.33-77.3,1-115.99h-.01ZM579.19,302.75c36.45-3.44,40.7-46.26,37.87-75.37-2.04-21-15.25-43.12-38.89-41.11,10.15,37.94,10.78,78.37,1.02,116.48Z"/>
      <path class="st4" d="M421.05,167.62c-46.74,9.17-66.73,67.33-35.83,103.6,9.52,11.17,22.78,16.38,35.83,21.17v165.22c-64.83,25.67-140.26,26.03-204.9-.33l-.84-164.9c11.01-4.46,20.66-7.17,29.88-15.12,39.67-34.22,20.53-100.16-30.07-110.13l.52-130.42c64.15-24.25,140.34-24.73,204.57-.49l.84,131.39h0ZM270.55,345.39c15.86,16.51,51.89,18.1,72.42,11.65,7.31-2.3,32.47-13,24.8-23.36-5.14-6.95-14.67,3.29-20.2,5.96-20.91,10.06-43.52,9.29-63.69-2.06-5.01-2.82-9.59-10.79-15.74-4.37-4.03,4.2-.96,8.67,2.42,12.19h0Z"/>
      <path class="st1" d="M517.83,107.09c79.56,99.86,61.16,242.9-40.73,319.07-6.31,4.72-39.47,27.19-45.25,25.5l-1.57-157.28c.56-1.94,12.53-2.3,15.91-3.13,19.65-4.85,38.98-22.98,44.47-42.53,11.62-41.38-16.51-80.89-59.35-82.08l-.63-123.91c.6-1.52-.07-2.11,1.82-1.81,2.3.36,9.7,4.33,12.34,5.68,26.6,13.59,54.43,37.19,72.99,60.49Z"/>
      <path class="st1" d="M206.19,166.76c-37.88-.3-65.08,30.02-63.05,67.55,1.77,32.74,30.01,59.69,63.05,58.45v160c-20.67-7.49-41.27-21.17-58.01-35.48C27.51,314.08,49.7,117.64,191.88,46.94c1.42-.71,14.31-7.92,14.31-3.69v123.5h0Z"/>
      <path class="st0" d="M579.19,302.75c9.76-38.11,9.13-78.53-1.02-116.48,23.64-2,36.85,20.11,38.89,41.11,2.83,29.11-1.41,71.92-37.87,75.37Z"/>
      <path class="st0" d="M57.18,185.76c-8.33,38.69-8.97,77.21-1,115.99-34.06-2.48-38.93-41.16-37.04-68.54,1.66-23.96,11.53-45.16,38.03-47.46h.01Z"/>
      <path class="st3" d="M270.55,345.39c-3.38-3.52-6.44-7.99-2.42-12.19,6.15-6.41,10.72,1.55,15.74,4.37,20.18,11.35,42.78,12.12,63.69,2.06,5.54-2.66,15.06-12.91,20.2-5.96,7.67,10.36-17.49,21.07-24.8,23.36-20.52,6.45-56.56,4.86-72.42-11.65h.01Z"/>
      <circle class="st3" cx="204.62" cy="230.42" r="23.27"/>
      <circle class="st3" cx="431.89" cy="230.4" r="23.32"/>
    </g>
  </g>
</svg>